<?xml version="1.0" standalone="no"?><!DOCTYPE svg PUBLIC "-//W3C//DTD SVG 1.1//EN" "http://www.w3.org/Graphics/SVG/1.1/DTD/svg11.dtd"><svg t="1489391670956" class="icon" style="" viewBox="0 0 1024 1024" version="1.1" xmlns="http://www.w3.org/2000/svg" p-id="1509" xmlns:xlink="http://www.w3.org/1999/xlink" width="128" height="128"><defs><style type="text/css"></style></defs><path d="M494.5 54.6c-95.9 3.4-176.6 29.5-234.5 76-10.9 8.7-30.8 28.6-39 38.9-35.7 44.9-54.4 97.9-58 163.8-3.8 70 14.8 131.1 55.3 181.2 8.3 10.2 30.7 32.1 41.7 40.6 37.7 29.2 82.8 50.2 135.8 63 9.2 2.3 16.8 4.2 17 4.4 0.6 0.6-3 19.2-5.8 30.5-5 19.6-9.6 32.3-21 57.4-13.1 29-16.7 43.6-15.7 64.5 0.8 19.5 4.9 34.2 18.9 69.1 23.5 58.3 50.1 102.9 70.1 117.6 10 7.4 15.4 9 25.4 7.4 7.8-1.3 12.7-3.6 16.9-8.2 7.5-7.9 7.8-10 10.1-73.1 0.9-26.2 2-47.4 2.3-47 0.7 0.8 4.1 78.7 4 91.9-0.1 22.4 7.7 33.6 25.3 36.4 8 1.2 11.5 0.6 19.2-3.4 23.4-12.2 55-64.8 82.4-137.3 10.4-27.6 13.8-44.6 12.8-63.3-1-17.4-3.8-26.2-20-63.5-6.9-16-11.7-30.5-16.6-50-3.1-12.6-6.5-29.5-5.9-29.9 0.2-0.2 6.6-1.7 14.3-3.6 50.7-11.9 98.1-33.9 135.5-62.9 11-8.5 33.4-30.4 41.7-40.6 40.5-50.1 59.1-111.2 55.3-181.2-3.2-58.1-17.3-103.9-45-145.6-41.5-62.5-110.5-104.9-200.5-123.2-35.8-7.3-84.3-11.2-122-9.9zm72 99.4c38.5 4.5 67.6 10.7 97 20.5 56.3 18.7 90 42.2 103.9 72.7 5.2 11.2 10.5 28.7 12.8 42.1 1.7 10.5 1.9 14.9 1.5 31.2-0.4 13.4-1.2 21.9-2.6 29-9 43.7-28.3 83.1-53.5 109.3-11.8 12.2-20 18.6-31.6 24.6-13.1 6.8-20.8 8.7-39 9.3-19.6 0.7-36.6-1.3-58-6.9-39-10.2-48.9-11.8-76.2-12.5-30.8-0.8-51.5 1.8-83.3 10.6-26.4 7.4-38 9.1-61 9.1-13.6 0-18.7-0.4-25.5-2-43-10.2-83.5-61.2-100.5-126.3-4.7-18-6.5-31.8-6.5-48.8 0-21.8 3.2-39 11-59.7 5.7-15.2 10.8-23.2 21.9-34.3 36-36.1 111.5-62.1 202.1-69.9 18.5-1.5 67.2-0.5 87.5 2zm-18.4 510.3c1.9 1.2 4.5 3.9 5.8 5.9l2.4 3.7 2.8-3.9c6.9-9.5 19.1-10.5 26.1-2.2 3.7 4.5 5.1 9.4 4.6 17.2-0.4 8.3-3 12.1-12.6 18.9-8.7 6.1-15.7 12.6-18.4 16.9-2 3.2-2.3 3.4-3.2 1.7-2.5-4.4-10.2-11.6-18.4-17.4-11.1-7.8-13.5-11.2-14-20.1-0.6-10.3 2.3-16.9 9.2-21.1 4.4-2.7 11.4-2.5 15.7 0.4z" p-id="1510" fill="#1296db"></path><path d="M670.4 297.9c-8.6 2.1-16.5 10-18 17.8-1.8 9.5 2.7 19.6 11 24.7 6.2 3.9 15.8 4.3 22.1 0.9 11.4-6 15.9-18.8 10.8-30.3-4.1-9.4-16.2-15.5-25.9-13.1z" p-id="1511" fill="#1296db"></path><path d="M340.5 299.9c-10.4 4.7-16 16-13.2 26.7 1.8 6.8 5.8 11.8 12 14.9 23.5 11.7 45.2-18 26.7-36.5-6.9-7-17.1-9-25.5-5.1z" p-id="1512" fill="#1296db"></path><path d="M451.6 319c-5.5 0.5-7.3 1.2-8.8 3-7.5 9.2 11.1 22.5 40 28.5 19.9 4.1 44.1 3.9 63.7-0.7 23.1-5.3 38.9-14.8 38.9-23.3 0-4.7-2.3-6.7-8.6-7.6-6.6-0.9-115.8-0.9-125.2 0.1z" p-id="1513" fill="#1296db"></path><path d="M321 653.2c-2.6 1.7-4.9 5.1-8.8 12.8-10.2 20.5-16.4 38.9-16.5 49.5-0.1 6.8 2.9 14.7 6.1 16.4 3.7 2 8.7 1.3 12.9-1.8 9.7-7 40-47.7 41-55 1.1-7.9-4.2-14-17.5-20.3-8.7-4.2-12.8-4.6-17.2-1.6z" p-id="1514" fill="#1296db"></path><path d="M692.6 653.5c-7.4 3-16.1 8.7-18.2 12-2.5 3.9-2.8 10.4-0.7 14.2 7.2 12.9 32.7 45.4 39.5 50.3 7.2 5.3 13.6 3.9 17-3.8 5-11.2 0.1-31.2-14.7-60.5-7.5-14.9-11.3-17-22.9-12.2z" p-id="1515" fill="#1296db"></path></svg>