<?xml version="1.0" standalone="no"?><!DOCTYPE svg PUBLIC "-//W3C//DTD SVG 1.1//EN" "http://www.w3.org/Graphics/SVG/1.1/DTD/svg11.dtd"><svg t="1490002858308" class="icon" style="" viewBox="0 0 1024 1024" version="1.1" xmlns="http://www.w3.org/2000/svg" p-id="2030" xmlns:xlink="http://www.w3.org/1999/xlink" width="128" height="128"><defs><style type="text/css"></style></defs><path d="M886.122496 343.892992c-19.600384-46.339072-47.657984-87.955456-83.393536-123.692032-35.735552-35.736576-77.35296-63.794176-123.692032-83.39456-47.978496-20.293632-98.941952-30.582784-151.474176-30.582784S424.068096 116.512768 376.088576 136.8064c-46.339072 19.600384-87.95648 47.657984-123.692032 83.39456-35.736576 35.736576-63.794176 77.35296-83.39456 123.692032-20.293632 47.978496-30.582784 98.941952-30.582784 151.473152 0 52.532224 10.289152 103.494656 30.582784 151.474176 19.600384 46.340096 47.657984 87.95648 83.39456 123.693056 35.736576 35.735552 77.35296 63.794176 123.692032 83.393536 47.978496 20.292608 98.941952 30.582784 151.473152 30.582784 52.532224 0 103.494656-10.290176 151.474176-30.582784 46.339072-19.600384 87.95648-47.657984 123.692032-83.393536 35.735552-35.736576 63.794176-77.35296 83.393536-123.693056 20.293632-47.978496 30.582784-98.941952 30.582784-151.474176C916.706304 442.835968 906.417152 391.872512 886.122496 343.892992zM528.272384 540.619776c-76.186624 0-138.169344-61.988864-138.169344-138.18368 0-76.186624 61.98272-138.169344 138.169344-138.169344 76.201984 0 138.195968 61.98272 138.195968 138.169344C666.468352 478.630912 604.474368 540.619776 528.272384 540.619776zM379.179008 631.559168c42.591232-33.833984 93.924352-51.718144 148.448256-51.718144 54.448128 0 105.723904 17.845248 148.284416 51.605504 40.572928 32.186368 69.922816 77.190144 82.871296 126.974976-28.29312 24.926208-60.205056 44.991488-94.906368 59.667456-43.153408 18.254848-89.01632 27.510784-136.313856 27.510784-47.29856 0-93.161472-9.254912-136.315904-27.50976-34.659328-14.659584-66.548736-34.706432-94.826496-59.603968C309.351424 708.733952 338.655232 663.75168 379.179008 631.559168zM700.096512 600.961024c-24.019968-19.054592-50.792448-33.895424-79.571968-44.1088-1.149952-0.408576-2.315264-0.813056-3.492864-1.211392 24.554496-14.267392 45.398016-34.250752 60.745728-58.35264 18.05824-28.357632 27.602944-61.156352 27.602944-94.851072 0-97.644544-79.451136-177.084416-177.110016-177.084416-97.644544 0-177.084416 79.439872-177.084416 177.084416 0 33.595392 9.49248 66.311168 27.449344 94.613504 15.254528 24.042496 35.982336 44.010496 60.407808 58.307584-1.48992 0.499712-2.968576 1.010688-4.431872 1.53088-28.813312 10.237952-55.607296 25.109504-79.638528 44.199936-40.884224 32.478208-72.508416 77.074432-89.737216 126.314496-25.276416-28.511232-45.574144-60.672-60.398592-95.720448-18.253824-43.15648-27.508736-89.019392-27.508736-136.31488 0-47.296512 9.255936-93.160448 27.508736-136.31488 17.639424-41.7024 42.896384-79.161344 75.071488-111.335424 32.177152-32.176128 69.635072-57.434112 111.335424-75.071488 43.15648-18.253824 89.020416-27.508736 136.315904-27.508736 47.296512 0 93.159424 9.255936 136.313856 27.508736 41.705472 17.639424 79.164416 42.897408 111.337472 75.071488 32.173056 32.173056 57.43104 69.632 75.071488 111.335424 18.2528 43.155456 27.508736 89.018368 27.508736 136.31488 0 47.297536-9.254912 93.161472-27.50976 136.315904-14.80704 35.014656-35.081216 67.1488-60.326912 95.6416C772.701184 678.047744 741.036032 633.43616 700.096512 600.961024z" p-id="2031" fill="#1296db"></path></svg>